<?xml version="1.0" encoding="UTF-8" standalone="no"?><!DOCTYPE svg PUBLIC "-//W3C//DTD SVG 1.1//EN" "http://www.w3.org/Graphics/SVG/1.1/DTD/svg11.dtd"><svg width="100%" height="100%" viewBox="0 0 11812 11812" version="1.1" xmlns="http://www.w3.org/2000/svg" xmlns:xlink="http://www.w3.org/1999/xlink" xml:space="preserve" xmlns:serif="http://www.serif.com/" style="fill-rule:evenodd;clip-rule:evenodd;stroke-linejoin:round;stroke-miterlimit:2;"><path d="M11811.024,1011.47l0,9788.085c0,558.245 -453.224,1011.47 -1011.47,1011.47l-9788.085,0c-558.245,0 -1011.47,-453.224 -1011.47,-1011.47l0,-9788.085c0,-558.245 453.224,-1011.47 1011.47,-1011.47l9788.085,0c558.245,0 1011.47,453.224 1011.47,1011.47Zm-6476.162,4990.039l341.324,0c455.098,0 785.755,111.997 991.971,335.99c206.216,223.994 323.546,595.538 351.99,1114.635l426.654,0l-31.999,-1685.285l31.999,-1535.956l-426.654,0c-56.887,476.431 -184.884,812.421 -383.989,1007.971c-199.105,195.55 -519.096,293.325 -959.972,293.325l-341.324,0l0,-2879.917l874.641,0c383.989,0 709.313,24.888 975.972,74.665c266.659,49.776 485.319,131.552 655.981,245.326c170.662,113.775 307.547,266.659 410.655,458.653c103.108,191.994 179.55,430.21 229.327,714.646l426.654,0l-85.331,-1194.632l-21.333,-799.977l-1493.29,31.999l-2858.584,0l-1685.285,-31.999l0,426.654l213.327,21.333c191.994,14.222 339.546,51.554 442.654,111.997c103.108,60.443 172.439,159.995 207.994,298.658c35.555,138.663 53.332,335.99 53.332,591.983l0,4735.864c0,255.993 -17.777,451.543 -53.332,586.65c-35.555,135.107 -103.108,231.104 -202.661,287.992c-99.553,56.887 -248.882,95.997 -447.987,117.33l-213.327,21.333l0,437.321l1685.285,-31.999l4597.201,0l31.999,-959.972l74.665,-1493.29l-437.321,0c-49.776,476.431 -151.107,860.42 -303.991,1151.967c-152.884,291.547 -373.323,503.097 -661.314,634.648c-287.992,131.552 -659.537,197.328 -1114.635,197.328l-245.326,0c-412.433,0 -691.536,-46.221 -837.309,-138.663c-145.774,-92.442 -218.66,-270.214 -218.66,-533.318l0,-2613.258Z" style="fill:#059669;"/></svg>